HIERARCHY
ROOT root
{
	OFFSET	0	13.1	24.9
	CHANNELS 6  Xposition Yposition Zposition Xrotation Yrotation Zrotation
	JOINT spine_1
	{
		OFFSET	0	9.99999	0
		CHANNELS 3  Xrotation Yrotation Zrotation
		JOINT spine_2
		{
			OFFSET	0	112	-10
			CHANNELS 3  Xrotation Yrotation Zrotation
			JOINT spine_3
			{
				OFFSET	0	206.5	19.3
				CHANNELS 3  Xrotation Yrotation Zrotation
				JOINT spine_4
				{
					OFFSET	0	110.4	14.6
					CHANNELS 3  Xrotation Yrotation Zrotation
					JOINT neck_1
					{
						OFFSET	0	71.8	-50.3
						CHANNELS 3  Xrotation Yrotation Zrotation
						JOINT neck_2
						{
							OFFSET	0	86.2	-25.8
							CHANNELS 3  Xrotation Yrotation Zrotation
							JOINT head_ee
							{
								OFFSET	0	179.8	-8.7
								CHANNELS 3  Xrotation Yrotation Zrotation
								End Site
								{
									OFFSET	1	0	0
								}
							}
						}
					}
					JOINT left_clavicle
					{
						OFFSET	-43.2	22.4	-70.8
						CHANNELS 3  Xrotation Yrotation Zrotation
						JOINT left_shoulder
						{
							OFFSET	-93.9	-5.79999	48.7
							CHANNELS 3  Xrotation Yrotation Zrotation
							JOINT left_elbow
							{
								OFFSET	-291.4	-30.8	15.2
								CHANNELS 3  Xrotation Yrotation Zrotation
								JOINT left_lowarm_twist
								{
									OFFSET	-110.7	-3.89999	13.6
									CHANNELS 3  Xrotation Yrotation Zrotation
									JOINT left_hand
									{
										OFFSET	-110.7	-3.89999	13.6
										CHANNELS 3  Xrotation Yrotation Zrotation
										JOINT left_ee
										{
											OFFSET	-80.8	-5.10001	12.1
											CHANNELS 3  Xrotation Yrotation Zrotation
											End Site
											{
												OFFSET	1	0	0
											}
										}
									}
								}
							}
						}
					}
					JOINT right_clavicle
					{
						OFFSET	43.2	22.4	-70.8
						CHANNELS 3  Xrotation Yrotation Zrotation
						JOINT right_shoulder
						{
							OFFSET	93.9	-5.79999	48.7
							CHANNELS 3  Xrotation Yrotation Zrotation
							JOINT right_elbow
							{
								OFFSET	291.4	-30.8	15.2
								CHANNELS 3  Xrotation Yrotation Zrotation
								JOINT right_lowarm_twist
								{
									OFFSET	110.7	-3.89999	13.6
									CHANNELS 3  Xrotation Yrotation Zrotation
									JOINT right_hand
									{
										OFFSET	110.7	-3.89999	13.6
										CHANNELS 3  Xrotation Yrotation Zrotation
										JOINT right_ee
										{
											OFFSET	80.8	-5.10001	12.1
											CHANNELS 3  Xrotation Yrotation Zrotation
											End Site
											{
												OFFSET	1	0	0
											}
										}
									}
								}
							}
						}
					}
				}
			}
		}
	}
	JOINT left_hip
	{
		OFFSET	-82.8	-127.5	0.300001
		CHANNELS 3  Xrotation Yrotation Zrotation
		JOINT left_knee
		{
			OFFSET	-28.2	-396.7	2.2
			CHANNELS 3  Xrotation Yrotation Zrotation
			JOINT left_ankle
			{
				OFFSET	-11.7	-411.3	35.4
				CHANNELS 3  Xrotation Yrotation Zrotation
				JOINT left_toes
				{
					OFFSET	0	-60	-88.6
					CHANNELS 3  Xrotation Yrotation Zrotation
					JOINT left_foot_ee
					{
						OFFSET	-22.5	-16.5	-42.2
						CHANNELS 3  Xrotation Yrotation Zrotation
						End Site
						{
							OFFSET	1	0	0
						}
					}
				}
			}
		}
	}
	JOINT right_hip
	{
		OFFSET	82.8	-127.5	0.300001
		CHANNELS 3  Xrotation Yrotation Zrotation
		JOINT right_knee
		{
			OFFSET	28.2	-396.7	2.2
			CHANNELS 3  Xrotation Yrotation Zrotation
			JOINT right_ankle
			{
				OFFSET	11.7	-411.3	35.4
				CHANNELS 3  Xrotation Yrotation Zrotation
				JOINT right_toes
				{
					OFFSET	0	-60	-88.6
					CHANNELS 3  Xrotation Yrotation Zrotation
					JOINT right_foot_ee
					{
						OFFSET	22.5	-16.5	-42.2
						CHANNELS 3  Xrotation Yrotation Zrotation
						End Site
						{
							OFFSET	1	0	0
						}
					}
				}
			}
		}
	}
}
MOTION
Frames: 5
Frame Time: 0.02
490.088 762.188 -1286.62 -162.201 -24.9135 179.918 7.6395 0.613778 3.11465 7.6448 0.414441 3.14735 7.65891 0.168061 3.17004 7.64551 0.666358 3.10383 -29.0289 14.4632 -0.963153 -31.2155 27.9674 8.10642 -0.0 0.0 -0.0 -0.966298 23.5904 1.41033 -30.3276 -8.22454 56.8595 0.829995 -22.3501 0.163971 -7.43763 -0.320654 0.894456 0.405801 -0.952543 2.31493 -0.0 0.0 -0.0 13.3999 27.0605 -26.4721 -21.4318 40.0422 -66.9827 0.533482 14.8034 -0.0693038 8.45934 -0.220345 1.05715 -1.0986 -7.78297 3.8857 0.0 0.0 0.0 35.1868 -23.6111 8.72838 -28.139 0.110836 4.27365 25.2084 19.0246 -3.43443 -21.0254 0.0 0.0 -0.0 0.0 -0.0 32.116 -8.62258 10.6495 -16.7878 -0.320051 -2.54717 14.3221 7.33734 2.07322 34.1106 -0.0 -0.0 0.0 0.0 0.0 
490.512 764.434 -1280.7 -161.95 -28.0991 -178.993 7.52174 0.543019 3.15421 7.52721 0.341312 3.18233 7.5375 0.0855287 3.19942 7.5237 0.589492 3.14587 -28.7118 14.3341 -1.49863 -30.8556 27.9361 7.43874 -0.0 0.0 -0.0 -0.949656 23.6186 1.4369 -29.9332 -8.37777 57.0496 0.843173 -22.6693 0.169016 -7.51419 -0.324555 0.903437 0.339659 -0.565346 2.03341 -0.0 0.0 -0.0 13.3518 26.2434 -26.4625 -21.0255 39.937 -66.9581 0.526071 14.6066 -0.0674225 8.59626 -0.222621 1.07449 -1.15612 -7.93466 4.19136 0.0 0.0 0.0 35.5911 -22.6537 8.41984 -28.7904 0.0884919 4.37113 25.3117 19.1925 -3.44901 -21.1388 0.0 0.0 -0.0 0.0 -0.0 31.2414 -9.74804 10.9021 -16.3545 -0.321231 -2.4807 13.7133 7.44949 1.99129 34.1119 -0.0 -0.0 0.0 0.0 0.0 
493.283 763.057 -1276.56 -161.729 -30.7949 -178.26 7.47973 0.571248 3.36935 7.48598 0.355817 3.39883 7.49727 0.0802835 3.41644 7.48152 0.61853 3.361 -28.2973 14.4322 -1.64589 -30.4419 28.2103 7.26427 -0.0 0.0 -0.0 -0.891593 23.8203 1.54333 -29.8054 -8.41198 57.3366 0.838744 -22.5622 0.167312 -7.44507 -0.321033 0.895329 0.268835 0.195505 1.87703 -0.0 0.0 -0.0 13.1824 25.5939 -26.1465 -20.5499 39.937 -66.6768 0.509453 14.1641 -0.0632938 8.79834 -0.225904 1.1001 -1.30482 -8.79819 4.76539 0.0 0.0 0.0 36.0401 -21.6172 7.40458 -27.4231 0.134108 4.16626 24.7436 19.3676 -3.38317 -21.5212 0.0 0.0 -0.0 0.0 -0.0 29.9432 -10.5718 11.3053 -16.0173 -0.321802 -2.42896 13.7897 7.9216 2.00624 34.2727 -0.0 -0.0 0.0 0.0 0.0 
496.934 763.757 -1269.48 -162.31 -33.7061 -178.521 7.2824 0.627967 3.4525 7.28894 0.40714 3.4854 7.30375 0.112686 3.50727 7.28721 0.664847 3.44559 -28.3948 13.9908 -1.92652 -30.422 27.4643 6.71917 -0.0 0.0 -0.0 -0.947345 23.9585 1.48656 -29.6216 -8.52037 57.7916 0.881636 -23.5924 0.184126 -7.53327 -0.325529 0.905675 0.191908 0.408246 1.45225 -0.0 0.0 -0.0 13.3592 26.1623 -26.4896 -19.2889 40.6879 -66.3188 0.568702 15.7337 -0.078579 8.69304 -0.224204 1.08675 -1.30136 -8.70946 4.78336 0.0 0.0 0.0 36.466 -21.8373 6.83606 -26.877 0.150958 4.08413 25.0328 19.5672 -3.42065 -21.2964 0.0 0.0 -0.0 0.0 -0.0 29.4201 -12.5723 11.7645 -15.7823 -0.322019 -2.39291 13.7184 7.25467 1.99018 34.1917 -0.0 -0.0 0.0 0.0 0.0 
495.028 761.57 -1267.71 -161.504 -36.29 -176.668 7.26227 0.605751 3.51652 7.26907 0.380902 3.54788 7.28238 0.0799058 3.56735 7.2652 0.641948 3.5101 -27.9808 13.6892 -2.62433 -29.9116 27.1818 5.76393 -0.0 0.0 -0.0 -0.630797 24.0972 1.93256 -29.2248 -8.66273 58.3213 0.842626 -22.6561 0.168805 -6.96235 -0.296706 0.83859 0.078887 2.27433 1.47888 -0.0 0.0 -0.0 13.1971 24.9263 -26.2562 -17.7947 40.3135 -66.5141 0.521409 14.4826 -0.0662518 8.67387 -0.223892 1.08432 -1.39831 -9.48462 5.05614 0.0 0.0 0.0 37.6252 -20.4644 6.89643 -27.0299 0.146321 4.10713 24.8776 21.3624 -3.42814 -21.3143 0.0 0.0 -0.0 0.0 -0.0 27.9925 -13.7086 11.8807 -15.4774 -0.32208 -2.34613 14.2605 7.36797 2.06514 34.026 -0.0 -0.0 0.0 0.0 0.0 
